<svg width="50" height="50" viewBox="0 0 50 50" fill="none" xmlns="http://www.w3.org/2000/svg">
<path d="M36.4583 9.375C32.3958 9.375 28.0208 10.2083 25 12.5C21.9792 10.2083 17.6042 9.375 13.5417 9.375C10.5208 9.375 7.3125 9.83333 4.625 11.0208C3.10417 11.7083 2.08333 13.1875 2.08333 14.875V38.375C2.08333 41.0833 4.625 43.0833 7.25 42.4167C9.29167 41.8958 11.4583 41.6667 13.5417 41.6667C16.7917 41.6667 20.25 42.2083 23.0417 43.5833C24.2917 44.2083 25.7083 44.2083 26.9375 43.5833C29.7292 42.1875 33.1875 41.6667 36.4375 41.6667C38.5208 41.6667 40.6875 41.8958 42.7292 42.4167C45.3542 43.1042 47.8958 41.1042 47.8958 38.375V14.875C47.8958 13.1875 46.875 11.7083 45.3542 11.0208C42.6875 9.83333 39.4792 9.375 36.4583 9.375V9.375ZM43.75 35.8958C43.75 37.2083 42.5417 38.1667 41.25 37.9375C39.6875 37.6458 38.0625 37.5208 36.4583 37.5208C32.9167 37.5208 27.8125 38.875 25 40.6458V16.6667C27.8125 14.8958 32.9167 13.5417 36.4583 13.5417C38.375 13.5417 40.2708 13.7292 42.0833 14.125C43.0417 14.3333 43.75 15.1875 43.75 16.1667V35.8958Z" fill="#131314"/>
<path d="M29.125 22.9375C28.4583 22.9375 27.8542 22.5208 27.6458 21.8542C27.375 21.0417 27.8333 20.1458 28.6458 19.8958C31.8542 18.8542 36 18.5208 39.8125 18.9583C40.6667 19.0625 41.2917 19.8333 41.1875 20.6875C41.0833 21.5417 40.3125 22.1667 39.4583 22.0625C36.0833 21.6667 32.3958 21.9792 29.6042 22.875C29.4375 22.8958 29.2708 22.9375 29.125 22.9375V22.9375ZM29.125 28.4792C28.4583 28.4792 27.8542 28.0625 27.6458 27.3958C27.375 26.5833 27.8333 25.6875 28.6458 25.4375C31.8333 24.3958 36 24.0625 39.8125 24.5C40.6667 24.6042 41.2917 25.375 41.1875 26.2292C41.0833 27.0833 40.3125 27.7083 39.4583 27.6042C36.0833 27.2083 32.3958 27.5208 29.6042 28.4167C29.4375 28.4583 29.2708 28.4792 29.125 28.4792V28.4792ZM29.125 34.0208C28.4583 34.0208 27.8542 33.6042 27.6458 32.9375C27.375 32.125 27.8333 31.2292 28.6458 30.9792C31.8333 29.9375 36 29.6042 39.8125 30.0417C40.6667 30.1458 41.2917 30.9167 41.1875 31.7708C41.0833 32.625 40.3125 33.2292 39.4583 33.1458C36.0833 32.75 32.3958 33.0625 29.6042 33.9583C29.4375 34 29.2708 34.0208 29.125 34.0208V34.0208Z" fill="#131314"/>
</svg>
